PathFileType	4	(X/Y/Z)	7_coords_data.trc
DataRate	CameraRate	NumFrames	NumMarkers	Units	OrigDataRate	OrigDataStartFrame	OrigNumFrames
30.0	30.0	8	21	m	30.0	56	65
Frame#	Time	THUMB_TIP	THUMB_IP	THUMB_MCP	THUMB_CMC	INDEX_TIP	INDEX_DIP	INDEX_PIP	INDEX_MCP	MIDDLE_TIP	MIDDLE_DIP	MIDDLE_PIP	MIDDLE_MCP	RING_TIP	RING_DIP	RING_PIP	RING_MCP	PINKY_TIP	PINKY_DIP	PINKY_PIP	PINKY_MCP	WRIST
X1	Y1	Z1	X2	Y2	Z2	X3	Y3	Z3	X4	Y4	Z4	X5	Y5	Z5	X6	Y6	Z6	X7	Y7	Z7	X8	Y8	Z8	X9	Y9	Z9	X10	Y10	Z10	X11	Y11	Z11	X12	Y12	Z12	X13	Y13	Z13	X14	Y14	Z14	X15	Y15	Z15	X16	Y16	Z16	X17	Y17	Z17	X18	Y18	Z18	X19	Y19	Z19	X20	Y20	Z20	X21	Y21	Z21
54	1.8333333333333253	0.5078914321694371	-0.02208249326518541	-0.16304237446766862	0.4952968544543682	-0.02514249164607829	-0.14406836534761114	0.4742727893548496	-0.03198573528834958	-0.12215994908482031	0.4699549339224557	-0.03287036166823554	-0.07777004527063125	0.556935461119944	0.006313675829826115	-0.16626734729415138	0.5419121488399101	0.01481801246108716	-0.1607922813951166	0.5198590301948444	0.021663788252660465	-0.15085220368726338	0.48753533870622245	0.010199932395625	-0.12560551932203412	0.5744787677135463	0.01028078726721493	-0.14986868482150895	0.5616206983554678	0.020870594979776502	-0.14276051874341145	0.5372350518229938	0.031483708687482626	-0.13083946129784285	0.4999525068708097	0.023095831543053724	-0.10769203638926306	0.5760368831010559	-0.0016488410456921843	-0.12715174846905297	0.5670163101870918	0.012177483118549826	-0.11990868113475595	0.5498328190237012	0.026757793998413826	-0.1093104668944136	0.5141757100818257	0.02435852526611515	-0.09040187293670632	0.5792592325193409	-0.015746143998661477	-0.09661851936632027	0.571445849302201	-0.002011834778286814	-0.09003674202723866	0.5567249215134062	0.010904055400836055	-0.08246798486916262	0.5231225357133654	0.014831584225174166	-0.06996447988539045	0.4622830810018609	-0.023011742144276925	-0.051989820119430985
55	1.8666666666666587	0.5086023304308099	-0.020453910662488806	-0.16262387032960246	0.49579000553209507	-0.023852243393822525	-0.14385432943652476	0.47465455754047947	-0.03109430493570775	-0.12218256479177869	0.47009601212844454	-0.03259039453634571	-0.0778331411243478	0.557410408198928	0.007846857708848742	-0.16541956652873724	0.5423781149496355	0.016320161882337758	-0.15992108709794833	0.5202766256729113	0.023049871910428843	-0.1500092251291426	0.4878909408846842	0.011104744154108004	-0.12506694300254528	0.5750430804103622	0.011825319336031925	-0.14887018196205903	0.562103030735991	0.022257874141590417	-0.1416787346352809	0.5376164888044193	0.032624498665060564	-0.12974760265953067	0.5002471714171017	0.02378835760539244	-0.10690893697653647	0.5765139399516437	-0.0006434608544827469	-0.1262720779289247	0.567426857021192	0.01306255726661143	-0.11888492752573587	0.5501679199961302	0.027472238443966623	-0.10817651213726986	0.514398010711539	0.024822210275593504	-0.08951607874254552	0.5797458407174255	-0.014796382076679881	-0.09592575945656867	0.5717676380082092	-0.0012419602686644104	-0.08917106249955842	0.5569281895521186	0.011473541973606838	-0.08149520481159767	0.5232358400860264	0.015037808678715292	-0.06912568415356157	0.4622830810018609	-0.023011742144276925	-0.051989820119430985
57	1.9000000000000012	0.5092939931120066	-0.019383951315859682	-0.16222703687118822	0.4962786819371803	-0.02298057001649323	-0.14363494153621603	0.4750039526020743	-0.03045926911069663	-0.12218092206255238	0.4702287598154665	-0.03237776859534092	-0.07787057458503699	0.5577272598871983	0.009123957571413932	-0.16485979004723095	0.5426847764445499	0.017550573853613027	-0.15931760366366093	0.5205529275150096	0.024155753023986648	-0.14938972855932642	0.48817616115393736	0.011768359804627648	-0.12465243721145391	0.5754766292325393	0.01319109260698137	-0.14817195185438092	0.5624576120039556	0.02346533490245173	-0.14089561103939685	0.5378782056586975	0.033567781384191364	-0.12892886926068903	0.5004816260244456	0.02429505592234782	-0.1063089595533464	0.5768599242455432	8.09459777205701e-05	-0.1256226998723985	0.5677310607955359	0.013698958228890334	-0.11812512730268554	0.5504248800305672	0.027987347675100915	-0.10733077630952026	0.5145793542125288	0.025145342309916274	-0.08884450793722276	0.5800676741045452	-0.014242343963119075	-0.09538055082885988	0.571999805544823	-0.0008008010230474705	-0.08850782063677021	0.5570973688931142	0.01179711889206192	-0.08076044594244358	0.5233427810846674	0.015142820282697977	-0.068500040766164	0.4622830810018609	-0.023011742144276925	-0.051989820119430985
58	1.9333333333333345	0.5099231307827414	-0.018486856132921337	-0.16187288695481045	0.496743751465774	-0.022244845041365813	-0.14342887762431245	0.4753364027232233	-0.029901897388244225	-0.12217058584976048	0.47035673797624045	-0.032184863340718795	-0.07790004253405802	0.5580962364019852	0.010315952376067972	-0.1643369625312714	0.5430341807368306	0.018673759980878835	-0.1587439730640232	0.5208699990364565	0.025137969721890085	-0.14879546187002957	0.4884998007772341	0.012338134596027617	-0.12426037313146243	0.5759647237625073	0.014429550143870262	-0.147470247623815	0.5628652603734667	0.024548075296403682	-0.14012045118740024	0.5381918681857795	0.03439446971830595	-0.12813371748547353	0.5007616233457904	0.024714968289484385	-0.10574104135447182	0.5772330416367824	0.0006296598121532382	-0.12495346017615783	0.56807147722969	0.014175135529923222	-0.11736492769655404	0.5507292146987651	0.02837148433701675	-0.1065072304335144	0.5148004438745146	0.02538880928973697	-0.08820564824451171	0.5803669848097578	-0.013890476031735988	-0.09479895685900697	0.5722367797898782	-0.0005385827405560706	-0.08782567127216401	0.5572941377705349	0.0119813193593169	-0.08002942089833998	0.5234786731720622	0.015180689076332299	-0.06789839297803235	0.4622830810018608	-0.023011742144276925	-0.051989820119430985
59	1.966666666666668	0.5105261301684602	-0.017705229054996274	-0.16153982322517724	0.49720599086756	-0.021601586795699013	-0.14322610472343433	0.4756674585653624	-0.029400765118518524	-0.12215279355133679	0.47048240570382616	-0.032005100599246994	-0.07792358754979423	0.5584923309209201	0.011475608344100774	-0.16383966482739631	0.5434004583185781	0.019741620551461336	-0.15819091066896085	0.5212004159746756	0.026046085458655943	-0.1482198688395987	0.48883993057314057	0.01284237776110364	-0.12388682173047894	0.5764770332349548	0.015554468295041035	-0.14675925868247108	0.563297601509452	0.025523786792605807	-0.1393487750216752	0.5385311684383021	0.035130125764926357	-0.12735912971911778	0.5010595216408913	0.025077063911872033	-0.10520152256787607	0.577612979473834	0.0010513919881562916	-0.12426957508456482	0.5684223661393546	0.014534048116714882	-0.11660468041763516	0.5510525730128669	0.028663340562110617	-0.10570360887693286	0.5150332033768121	0.025587159036158047	-0.08759662259426715	0.5806332058473211	-0.0136690920814182	-0.0942058557068961	0.5724624251156982	-0.0003897569667722367	-0.08714203229824069	0.5574967287526946	0.0120816234057608	-0.07931230542088563	0.5236228808343978	0.015185804463296204	-0.06732022727862275	0.462283081001861	-0.023011742144276925	-0.051989820119430985
60	2.000000000000001	0.511137635302253	-0.01698225989672686	-0.1612038352915619	0.49768527001146023	-0.021007574876125368	-0.14301508306938604	0.47601257992536994	-0.02893429586561902	-0.12212772807199579	0.4706081483771498	-0.03183179448714524	-0.07794304043726363	0.5588892832028782	0.012655166556888031	-0.1633554360613998	0.543756590805216	0.02080553167013599	-0.1576481451700501	0.5215156837750482	0.026929082428709616	-0.1476554471568704	0.4891742252124839	0.013309198977742298	-0.12352735301688489	0.576983246729545	0.016579207995600864	-0.14603313187828715	0.5637261505462855	0.026409790020841206	-0.13857598377510272	0.5388694878109541	0.03580003714383129	-0.12660188144419016	0.5013473372728648	0.02541016998651202	-0.10468643482655904	0.5779786365819473	0.001395067005935946	-0.12357584343872074	0.5687573466431664	0.014818684313435027	-0.1158444586826275	0.5513661215519767	0.028901529549551608	-0.10491748568535308	0.5152493291736125	0.025774847515450228	-0.08701435741804253	0.5808547794564332	-0.013505649166005496	-0.09362567777354702	0.5726598975405383	-0.0002882662473583375	-0.08647412555277789	0.5576829603568121	0.012153754989898347	-0.07861922395400678	0.5237547381117094	0.015192661166722576	-0.06676493209260159	0.462283081001861	-0.023011742144276925	-0.051989820119430985
61	2.033333333333334	0.5117908503616903	-0.01626156638361964	-0.16083892490074325	0.49820066339506863	-0.020419775659020867	-0.14278300858962145	0.4763871262201137	-0.028480825890431216	-0.12209462863652853	0.4707362699119432	-0.031658194170499976	-0.07796003728465095	0.5592596289002216	0.013906346093944588	-0.16287095035511023	0.5440744780039335	0.02191636207222758	-0.15710459654315856	0.5217863219489008	0.02783536806713993	-0.14709393718931463	0.4894800586287702	0.01376654402787092	-0.12317721428582129	0.5774531087507333	0.01751682168506752	-0.1452860491150305	0.5641223688265433	0.027223126168018807	-0.13779745603235805	0.5391800059066241	0.03642928768772702	-0.12585866748225483	0.5015968817246963	0.025743016971618515	-0.10419163455414404	0.5783083469638821	0.001709836469230841	-0.1228768192428672	0.5690495905921996	0.015072117049052758	-0.11508420170086353	0.5516406866465879	0.029124669516783164	-0.10414638603437165	0.5154203991820165	0.025986265575316914	-0.08645565313027725	0.5810197012639902	-0.013326943152422666	-0.09308263433202524	0.5728121023067647	-0.00016764311275152544	-0.0858391447155995	0.5578305432926194	0.012253679972625164	-0.07796033507743916	0.5238536116902955	0.015235874848538833	-0.06623181924579713	0.4622830810018609	-0.023011742144276925	-0.051989820119430985
62	2.0666666666666673	0.5125174373325593	-0.015487333608847909	-0.16041725051646294	0.4987703797694033	-0.019795448632774493	-0.1425158943305228	0.4768063292408805	-0.028018661373571563	-0.12205179756081197	0.4708689790794778	-0.03147752436568518	-0.07797602031454354	0.5595746561685333	0.015280165629618425	-0.16237200727517975	0.5443249156479911	0.023124310995151443	-0.15654836601386213	0.5219818648578443	0.028812601898097423	-0.14652632724959957	0.4897345850252969	0.01424213563215393	-0.12283137947176348	0.577856335573842	0.01838003432575086	-0.14451214970372883	0.5644576123449713	0.027980523952361502	-0.1370084962758672	0.5394357237342304	0.03704270486618921	-0.12512609258651475	0.5017798192386762	0.026104157021382135	-0.10371280351947576	0.5785798956693409	0.002044979988250706	-0.12217684015507735	0.5692718387444714	0.015337416480631916	-0.11432373832335474	0.5518467273678305	0.029371314549073047	-0.10338778031702223	0.515517811866518	0.026255622672744283	-0.08591714218814228	0.5811156186133604	-0.013059362763069404	-0.09260072330659097	0.5729017445521081	3.87850830786407e-05	-0.08525424143386218	0.5579170486373681	0.01243745847993083	-0.0773457772756978	0.5238987657524834	0.015350110780260606	-0.06572010150431373	0.4622830810018609	-0.023011742144276925	-0.051989820119430985
